<mxfile host="app.diagrams.net" modified="2023-10-20T13:02:40.530Z" agent="Mozilla/5.0 (Windows NT 10.0; Win64; x64) AppleWebKit/537.36 (KHTML, like Gecko) Chrome/116.0.0.0 Safari/537.36 OPR/102.0.0.0" etag="Ot920y74JY2a_GD_mliv" version="22.0.6" type="device">
  <diagram name="Página-1" id="POQHsENz2hvb2r6ufpSw">
    <mxGraphModel dx="2830" dy="1184" grid="1" gridSize="10" guides="1" tooltips="1" connect="1" arrows="1" fold="1" page="1" pageScale="1" pageWidth="827" pageHeight="1169" math="0" shadow="0">
      <root>
        <mxCell id="0" />
        <mxCell id="1" parent="0" />
        <mxCell id="y3Y6H-X3qQzjZ2dYzm8i-1" value="CLIENTE" style="rounded=1;whiteSpace=wrap;html=1;arcSize=27;" parent="1" vertex="1">
          <mxGeometry x="170" y="300" width="120" height="40" as="geometry" />
        </mxCell>
        <mxCell id="y3Y6H-X3qQzjZ2dYzm8i-2" value="" style="endArrow=none;html=1;rounded=0;entryX=0.5;entryY=0;entryDx=0;entryDy=0;exitX=0.245;exitY=1.044;exitDx=0;exitDy=0;exitPerimeter=0;" parent="1" source="BF22gdORD3tfmSY-qZLE-30" target="y3Y6H-X3qQzjZ2dYzm8i-1" edge="1">
          <mxGeometry width="50" height="50" relative="1" as="geometry">
            <mxPoint x="260" y="250" as="sourcePoint" />
            <mxPoint x="410" y="380" as="targetPoint" />
          </mxGeometry>
        </mxCell>
        <mxCell id="y3Y6H-X3qQzjZ2dYzm8i-4" value="" style="endArrow=none;html=1;rounded=0;exitX=0.5;exitY=0;exitDx=0;exitDy=0;entryX=0.5;entryY=1;entryDx=0;entryDy=0;" parent="1" source="y3Y6H-X3qQzjZ2dYzm8i-1" target="y3Y6H-X3qQzjZ2dYzm8i-8" edge="1">
          <mxGeometry width="50" height="50" relative="1" as="geometry">
            <mxPoint x="210" y="280" as="sourcePoint" />
            <mxPoint x="150" y="260" as="targetPoint" />
          </mxGeometry>
        </mxCell>
        <mxCell id="y3Y6H-X3qQzjZ2dYzm8i-5" value="" style="endArrow=none;html=1;rounded=0;exitX=0.5;exitY=0;exitDx=0;exitDy=0;entryX=0.5;entryY=1;entryDx=0;entryDy=0;" parent="1" source="y3Y6H-X3qQzjZ2dYzm8i-1" target="y3Y6H-X3qQzjZ2dYzm8i-9" edge="1">
          <mxGeometry width="50" height="50" relative="1" as="geometry">
            <mxPoint x="220" y="290" as="sourcePoint" />
            <mxPoint x="100" y="290" as="targetPoint" />
          </mxGeometry>
        </mxCell>
        <mxCell id="y3Y6H-X3qQzjZ2dYzm8i-8" value="NOME" style="ellipse;whiteSpace=wrap;html=1;" parent="1" vertex="1">
          <mxGeometry x="130" y="190" width="80" height="30" as="geometry" />
        </mxCell>
        <mxCell id="y3Y6H-X3qQzjZ2dYzm8i-9" value="&lt;u&gt;CPF&lt;/u&gt;" style="ellipse;whiteSpace=wrap;html=1;" parent="1" vertex="1">
          <mxGeometry x="110" y="240" width="80" height="30" as="geometry" />
        </mxCell>
        <mxCell id="y3Y6H-X3qQzjZ2dYzm8i-10" value="" style="endArrow=none;html=1;rounded=0;exitX=0;exitY=0.5;exitDx=0;exitDy=0;entryX=0.5;entryY=1;entryDx=0;entryDy=0;" parent="1" source="y3Y6H-X3qQzjZ2dYzm8i-1" target="y3Y6H-X3qQzjZ2dYzm8i-11" edge="1">
          <mxGeometry width="50" height="50" relative="1" as="geometry">
            <mxPoint x="150" y="330" as="sourcePoint" />
            <mxPoint x="20" y="320" as="targetPoint" />
          </mxGeometry>
        </mxCell>
        <mxCell id="y3Y6H-X3qQzjZ2dYzm8i-11" value="ENDERECO" style="ellipse;whiteSpace=wrap;html=1;" parent="1" vertex="1">
          <mxGeometry x="70" y="280" width="80" height="30" as="geometry" />
        </mxCell>
        <mxCell id="y3Y6H-X3qQzjZ2dYzm8i-14" value="RUA" style="ellipse;whiteSpace=wrap;html=1;" parent="1" vertex="1">
          <mxGeometry y="250" width="80" height="30" as="geometry" />
        </mxCell>
        <mxCell id="y3Y6H-X3qQzjZ2dYzm8i-15" value="" style="endArrow=none;html=1;rounded=0;exitX=0.5;exitY=1;exitDx=0;exitDy=0;entryX=0;entryY=0.5;entryDx=0;entryDy=0;" parent="1" source="y3Y6H-X3qQzjZ2dYzm8i-14" target="y3Y6H-X3qQzjZ2dYzm8i-11" edge="1">
          <mxGeometry width="50" height="50" relative="1" as="geometry">
            <mxPoint x="180" y="330" as="sourcePoint" />
            <mxPoint x="120" y="320" as="targetPoint" />
          </mxGeometry>
        </mxCell>
        <mxCell id="y3Y6H-X3qQzjZ2dYzm8i-16" value="NUMERO" style="ellipse;whiteSpace=wrap;html=1;" parent="1" vertex="1">
          <mxGeometry x="-80" y="270" width="80" height="30" as="geometry" />
        </mxCell>
        <mxCell id="y3Y6H-X3qQzjZ2dYzm8i-17" value="" style="endArrow=none;html=1;rounded=0;exitX=0.5;exitY=1;exitDx=0;exitDy=0;entryX=0.034;entryY=0.735;entryDx=0;entryDy=0;entryPerimeter=0;" parent="1" source="y3Y6H-X3qQzjZ2dYzm8i-16" target="y3Y6H-X3qQzjZ2dYzm8i-11" edge="1">
          <mxGeometry width="50" height="50" relative="1" as="geometry">
            <mxPoint x="70" y="405" as="sourcePoint" />
            <mxPoint x="70" y="300.0000000000001" as="targetPoint" />
            <Array as="points" />
          </mxGeometry>
        </mxCell>
        <mxCell id="y3Y6H-X3qQzjZ2dYzm8i-18" value="" style="endArrow=none;html=1;rounded=0;entryX=0.043;entryY=0.809;entryDx=0;entryDy=0;entryPerimeter=0;exitX=0.5;exitY=0;exitDx=0;exitDy=0;" parent="1" source="y3Y6H-X3qQzjZ2dYzm8i-19" target="y3Y6H-X3qQzjZ2dYzm8i-11" edge="1">
          <mxGeometry width="50" height="50" relative="1" as="geometry">
            <mxPoint x="-20" y="340" as="sourcePoint" />
            <mxPoint x="70" y="310" as="targetPoint" />
            <Array as="points" />
          </mxGeometry>
        </mxCell>
        <mxCell id="y3Y6H-X3qQzjZ2dYzm8i-19" value="CEP" style="ellipse;whiteSpace=wrap;html=1;" parent="1" vertex="1">
          <mxGeometry x="-70" y="320" width="80" height="30" as="geometry" />
        </mxCell>
        <mxCell id="y3Y6H-X3qQzjZ2dYzm8i-20" value="" style="endArrow=none;html=1;rounded=0;entryX=0.5;entryY=0;entryDx=0;entryDy=0;exitX=0.5;exitY=1;exitDx=0;exitDy=0;" parent="1" source="y3Y6H-X3qQzjZ2dYzm8i-21" target="y3Y6H-X3qQzjZ2dYzm8i-8" edge="1">
          <mxGeometry width="50" height="50" relative="1" as="geometry">
            <mxPoint x="110" y="180" as="sourcePoint" />
            <mxPoint x="180" y="230" as="targetPoint" />
          </mxGeometry>
        </mxCell>
        <mxCell id="y3Y6H-X3qQzjZ2dYzm8i-21" value="P NOME" style="ellipse;whiteSpace=wrap;html=1;" parent="1" vertex="1">
          <mxGeometry x="90" y="150" width="80" height="30" as="geometry" />
        </mxCell>
        <mxCell id="y3Y6H-X3qQzjZ2dYzm8i-22" value="" style="endArrow=none;html=1;rounded=0;exitX=0.5;exitY=0;exitDx=0;exitDy=0;entryX=0.5;entryY=1;entryDx=0;entryDy=0;" parent="1" source="y3Y6H-X3qQzjZ2dYzm8i-8" target="y3Y6H-X3qQzjZ2dYzm8i-23" edge="1">
          <mxGeometry width="50" height="50" relative="1" as="geometry">
            <mxPoint x="140" y="190" as="sourcePoint" />
            <mxPoint x="200" y="170" as="targetPoint" />
          </mxGeometry>
        </mxCell>
        <mxCell id="y3Y6H-X3qQzjZ2dYzm8i-23" value="UNOME" style="ellipse;whiteSpace=wrap;html=1;" parent="1" vertex="1">
          <mxGeometry x="180" y="150" width="80" height="30" as="geometry" />
        </mxCell>
        <mxCell id="y3Y6H-X3qQzjZ2dYzm8i-27" value="&lt;font style=&quot;font-size: 9px;&quot;&gt;TEM_CONTA_POUPANCA&lt;/font&gt;" style="shape=rhombus;double=1;perimeter=rhombusPerimeter;whiteSpace=wrap;html=1;align=center;rounded=0;strokeColor=default;verticalAlign=middle;fontFamily=Helvetica;fontSize=12;fontColor=default;fillColor=default;" parent="1" vertex="1">
          <mxGeometry x="200" y="495" width="150" height="90" as="geometry" />
        </mxCell>
        <mxCell id="y3Y6H-X3qQzjZ2dYzm8i-28" value="&lt;font size=&quot;1&quot;&gt;PERTENCE&lt;/font&gt;" style="shape=rhombus;double=1;perimeter=rhombusPerimeter;whiteSpace=wrap;html=1;align=center;rounded=0;strokeColor=default;verticalAlign=middle;fontFamily=Helvetica;fontSize=12;fontColor=default;fillColor=default;" parent="1" vertex="1">
          <mxGeometry x="770" y="485" width="150" height="90" as="geometry" />
        </mxCell>
        <mxCell id="y3Y6H-X3qQzjZ2dYzm8i-31" value="CONTA POUPANÇA" style="shape=ext;margin=3;double=1;whiteSpace=wrap;html=1;align=center;rounded=0;strokeColor=default;verticalAlign=middle;fontFamily=Helvetica;fontSize=12;fontColor=default;fillColor=default;" parent="1" vertex="1">
          <mxGeometry x="225" y="680" width="100" height="40" as="geometry" />
        </mxCell>
        <mxCell id="y3Y6H-X3qQzjZ2dYzm8i-32" value="" style="endArrow=none;html=1;rounded=0;fontFamily=Helvetica;fontSize=12;fontColor=default;entryX=0.56;entryY=0.973;entryDx=0;entryDy=0;entryPerimeter=0;exitX=0.59;exitY=-0.013;exitDx=0;exitDy=0;exitPerimeter=0;" parent="1" source="y3Y6H-X3qQzjZ2dYzm8i-31" target="y3Y6H-X3qQzjZ2dYzm8i-27" edge="1">
          <mxGeometry width="50" height="50" relative="1" as="geometry">
            <mxPoint x="360" y="520" as="sourcePoint" />
            <mxPoint x="410" y="470" as="targetPoint" />
          </mxGeometry>
        </mxCell>
        <mxCell id="BF22gdORD3tfmSY-qZLE-4" value="1" style="edgeLabel;html=1;align=center;verticalAlign=middle;resizable=0;points=[];" vertex="1" connectable="0" parent="y3Y6H-X3qQzjZ2dYzm8i-32">
          <mxGeometry x="0.6576" y="-2" relative="1" as="geometry">
            <mxPoint x="9" y="-4" as="offset" />
          </mxGeometry>
        </mxCell>
        <mxCell id="y3Y6H-X3qQzjZ2dYzm8i-33" value="" style="endArrow=none;html=1;rounded=0;fontFamily=Helvetica;fontSize=12;fontColor=default;entryX=0.456;entryY=0.973;entryDx=0;entryDy=0;entryPerimeter=0;exitX=0.442;exitY=0.005;exitDx=0;exitDy=0;exitPerimeter=0;" parent="1" source="y3Y6H-X3qQzjZ2dYzm8i-31" target="y3Y6H-X3qQzjZ2dYzm8i-27" edge="1">
          <mxGeometry width="50" height="50" relative="1" as="geometry">
            <mxPoint x="59" y="719" as="sourcePoint" />
            <mxPoint x="59" y="568" as="targetPoint" />
          </mxGeometry>
        </mxCell>
        <mxCell id="y3Y6H-X3qQzjZ2dYzm8i-35" value="" style="endArrow=none;html=1;rounded=0;fontFamily=Helvetica;fontSize=12;fontColor=default;exitX=1;exitY=0.5;exitDx=0;exitDy=0;entryX=0.443;entryY=0.982;entryDx=0;entryDy=0;entryPerimeter=0;" parent="1" source="y3Y6H-X3qQzjZ2dYzm8i-31" target="y3Y6H-X3qQzjZ2dYzm8i-28" edge="1">
          <mxGeometry width="50" height="50" relative="1" as="geometry">
            <mxPoint x="660" y="520" as="sourcePoint" />
            <mxPoint x="850" y="660" as="targetPoint" />
            <Array as="points">
              <mxPoint x="840" y="700" />
            </Array>
          </mxGeometry>
        </mxCell>
        <mxCell id="BF22gdORD3tfmSY-qZLE-7" value="N" style="edgeLabel;html=1;align=center;verticalAlign=middle;resizable=0;points=[];" vertex="1" connectable="0" parent="y3Y6H-X3qQzjZ2dYzm8i-35">
          <mxGeometry x="0.961" y="1" relative="1" as="geometry">
            <mxPoint x="34" y="-6" as="offset" />
          </mxGeometry>
        </mxCell>
        <mxCell id="y3Y6H-X3qQzjZ2dYzm8i-36" value="" style="endArrow=none;html=1;rounded=0;fontFamily=Helvetica;fontSize=12;fontColor=default;exitX=1;exitY=0.75;exitDx=0;exitDy=0;entryX=0.571;entryY=0.965;entryDx=0;entryDy=0;entryPerimeter=0;" parent="1" source="y3Y6H-X3qQzjZ2dYzm8i-31" target="y3Y6H-X3qQzjZ2dYzm8i-28" edge="1">
          <mxGeometry width="50" height="50" relative="1" as="geometry">
            <mxPoint x="705" y="670" as="sourcePoint" />
            <mxPoint x="855" y="570" as="targetPoint" />
            <Array as="points">
              <mxPoint x="860" y="710" />
            </Array>
          </mxGeometry>
        </mxCell>
        <mxCell id="y3Y6H-X3qQzjZ2dYzm8i-37" value="AGENCIA" style="rounded=1;whiteSpace=wrap;html=1;arcSize=27;" parent="1" vertex="1">
          <mxGeometry x="785" y="360" width="120" height="40" as="geometry" />
        </mxCell>
        <mxCell id="y3Y6H-X3qQzjZ2dYzm8i-38" value="" style="endArrow=none;html=1;rounded=0;fontFamily=Helvetica;fontSize=12;fontColor=default;entryX=0.5;entryY=1;entryDx=0;entryDy=0;exitX=0.5;exitY=0;exitDx=0;exitDy=0;" parent="1" source="y3Y6H-X3qQzjZ2dYzm8i-28" target="y3Y6H-X3qQzjZ2dYzm8i-37" edge="1">
          <mxGeometry width="50" height="50" relative="1" as="geometry">
            <mxPoint x="660" y="430" as="sourcePoint" />
            <mxPoint x="710" y="380" as="targetPoint" />
          </mxGeometry>
        </mxCell>
        <mxCell id="BF22gdORD3tfmSY-qZLE-8" value="1" style="edgeLabel;html=1;align=center;verticalAlign=middle;resizable=0;points=[];" vertex="1" connectable="0" parent="y3Y6H-X3qQzjZ2dYzm8i-38">
          <mxGeometry x="-0.6448" y="1" relative="1" as="geometry">
            <mxPoint x="26" y="15" as="offset" />
          </mxGeometry>
        </mxCell>
        <mxCell id="y3Y6H-X3qQzjZ2dYzm8i-39" value="&lt;u&gt;NUMERO_AG&lt;/u&gt;" style="ellipse;whiteSpace=wrap;html=1;" parent="1" vertex="1">
          <mxGeometry x="930" y="410" width="80" height="30" as="geometry" />
        </mxCell>
        <mxCell id="y3Y6H-X3qQzjZ2dYzm8i-40" value="" style="endArrow=none;html=1;rounded=0;fontFamily=Helvetica;fontSize=12;fontColor=default;entryX=0;entryY=0.5;entryDx=0;entryDy=0;exitX=1;exitY=1;exitDx=0;exitDy=0;" parent="1" source="y3Y6H-X3qQzjZ2dYzm8i-37" target="y3Y6H-X3qQzjZ2dYzm8i-39" edge="1">
          <mxGeometry width="50" height="50" relative="1" as="geometry">
            <mxPoint x="660" y="430" as="sourcePoint" />
            <mxPoint x="710" y="380" as="targetPoint" />
          </mxGeometry>
        </mxCell>
        <mxCell id="y3Y6H-X3qQzjZ2dYzm8i-41" value="ENDERECO" style="ellipse;whiteSpace=wrap;html=1;" parent="1" vertex="1">
          <mxGeometry x="940" y="350" width="80" height="30" as="geometry" />
        </mxCell>
        <mxCell id="y3Y6H-X3qQzjZ2dYzm8i-42" value="" style="endArrow=none;html=1;rounded=0;fontFamily=Helvetica;fontSize=12;fontColor=default;entryX=0;entryY=0.5;entryDx=0;entryDy=0;exitX=1;exitY=0.5;exitDx=0;exitDy=0;" parent="1" source="y3Y6H-X3qQzjZ2dYzm8i-37" target="y3Y6H-X3qQzjZ2dYzm8i-41" edge="1">
          <mxGeometry width="50" height="50" relative="1" as="geometry">
            <mxPoint x="660" y="430" as="sourcePoint" />
            <mxPoint x="710" y="380" as="targetPoint" />
          </mxGeometry>
        </mxCell>
        <mxCell id="y3Y6H-X3qQzjZ2dYzm8i-43" value="RUA" style="ellipse;whiteSpace=wrap;html=1;" parent="1" vertex="1">
          <mxGeometry x="1060" y="320" width="80" height="30" as="geometry" />
        </mxCell>
        <mxCell id="y3Y6H-X3qQzjZ2dYzm8i-44" value="NUMERO" style="ellipse;whiteSpace=wrap;html=1;" parent="1" vertex="1">
          <mxGeometry x="1040" y="260" width="80" height="30" as="geometry" />
        </mxCell>
        <mxCell id="y3Y6H-X3qQzjZ2dYzm8i-45" value="CEP" style="ellipse;whiteSpace=wrap;html=1;" parent="1" vertex="1">
          <mxGeometry x="1050" y="365" width="80" height="30" as="geometry" />
        </mxCell>
        <mxCell id="y3Y6H-X3qQzjZ2dYzm8i-46" value="" style="endArrow=none;html=1;rounded=0;fontFamily=Helvetica;fontSize=12;fontColor=default;entryX=0.5;entryY=1;entryDx=0;entryDy=0;exitX=1;exitY=0.5;exitDx=0;exitDy=0;" parent="1" source="y3Y6H-X3qQzjZ2dYzm8i-41" target="y3Y6H-X3qQzjZ2dYzm8i-44" edge="1">
          <mxGeometry width="50" height="50" relative="1" as="geometry">
            <mxPoint x="1040" y="430" as="sourcePoint" />
            <mxPoint x="1090" y="380" as="targetPoint" />
          </mxGeometry>
        </mxCell>
        <mxCell id="y3Y6H-X3qQzjZ2dYzm8i-47" value="" style="endArrow=none;html=1;rounded=0;fontFamily=Helvetica;fontSize=12;fontColor=default;entryX=1;entryY=0.5;entryDx=0;entryDy=0;exitX=0;exitY=0.5;exitDx=0;exitDy=0;" parent="1" source="y3Y6H-X3qQzjZ2dYzm8i-43" target="y3Y6H-X3qQzjZ2dYzm8i-41" edge="1">
          <mxGeometry width="50" height="50" relative="1" as="geometry">
            <mxPoint x="1040" y="430" as="sourcePoint" />
            <mxPoint x="1090" y="380" as="targetPoint" />
          </mxGeometry>
        </mxCell>
        <mxCell id="y3Y6H-X3qQzjZ2dYzm8i-48" value="" style="endArrow=none;html=1;rounded=0;fontFamily=Helvetica;fontSize=12;fontColor=default;entryX=1;entryY=0.5;entryDx=0;entryDy=0;exitX=0;exitY=0.5;exitDx=0;exitDy=0;" parent="1" source="y3Y6H-X3qQzjZ2dYzm8i-45" target="y3Y6H-X3qQzjZ2dYzm8i-41" edge="1">
          <mxGeometry width="50" height="50" relative="1" as="geometry">
            <mxPoint x="1070" y="275" as="sourcePoint" />
            <mxPoint x="1040" y="285" as="targetPoint" />
          </mxGeometry>
        </mxCell>
        <mxCell id="y3Y6H-X3qQzjZ2dYzm8i-49" value="" style="endArrow=none;html=1;rounded=0;fontFamily=Helvetica;fontSize=12;fontColor=default;entryX=1;entryY=0.25;entryDx=0;entryDy=0;exitX=0.066;exitY=0.765;exitDx=0;exitDy=0;exitPerimeter=0;" parent="1" source="BF22gdORD3tfmSY-qZLE-29" target="y3Y6H-X3qQzjZ2dYzm8i-37" edge="1">
          <mxGeometry width="50" height="50" relative="1" as="geometry">
            <mxPoint x="945" y="335" as="sourcePoint" />
            <mxPoint x="1090" y="380" as="targetPoint" />
          </mxGeometry>
        </mxCell>
        <mxCell id="y3Y6H-X3qQzjZ2dYzm8i-52" value="&lt;font size=&quot;1&quot;&gt;PERTENCE&lt;/font&gt;" style="shape=rhombus;double=1;perimeter=rhombusPerimeter;whiteSpace=wrap;html=1;align=center;rounded=0;strokeColor=default;verticalAlign=middle;fontFamily=Helvetica;fontSize=12;fontColor=default;fillColor=default;" parent="1" vertex="1">
          <mxGeometry x="770" y="200" width="150" height="90" as="geometry" />
        </mxCell>
        <mxCell id="y3Y6H-X3qQzjZ2dYzm8i-53" value="" style="endArrow=none;html=1;rounded=0;fontFamily=Helvetica;fontSize=12;fontColor=default;entryX=0.5;entryY=0;entryDx=0;entryDy=0;" parent="1" target="y3Y6H-X3qQzjZ2dYzm8i-37" edge="1">
          <mxGeometry width="50" height="50" relative="1" as="geometry">
            <mxPoint x="845" y="290" as="sourcePoint" />
            <mxPoint x="690" y="380" as="targetPoint" />
          </mxGeometry>
        </mxCell>
        <mxCell id="BF22gdORD3tfmSY-qZLE-9" value="1" style="edgeLabel;html=1;align=center;verticalAlign=middle;resizable=0;points=[];" vertex="1" connectable="0" parent="y3Y6H-X3qQzjZ2dYzm8i-53">
          <mxGeometry x="-0.6313" y="-1" relative="1" as="geometry">
            <mxPoint x="26" y="-8" as="offset" />
          </mxGeometry>
        </mxCell>
        <mxCell id="y3Y6H-X3qQzjZ2dYzm8i-55" value="CONTA CORRENTE" style="shape=ext;margin=3;double=1;whiteSpace=wrap;html=1;align=center;rounded=0;strokeColor=default;verticalAlign=middle;fontFamily=Helvetica;fontSize=12;fontColor=default;fillColor=default;" parent="1" vertex="1">
          <mxGeometry x="795" y="120" width="100" height="40" as="geometry" />
        </mxCell>
        <mxCell id="y3Y6H-X3qQzjZ2dYzm8i-56" value="" style="endArrow=none;html=1;rounded=0;fontFamily=Helvetica;fontSize=12;fontColor=default;entryX=0.429;entryY=1;entryDx=0;entryDy=0;entryPerimeter=0;exitX=0.453;exitY=0.023;exitDx=0;exitDy=0;exitPerimeter=0;" parent="1" source="y3Y6H-X3qQzjZ2dYzm8i-52" target="y3Y6H-X3qQzjZ2dYzm8i-55" edge="1">
          <mxGeometry width="50" height="50" relative="1" as="geometry">
            <mxPoint x="640" y="230" as="sourcePoint" />
            <mxPoint x="690" y="180" as="targetPoint" />
          </mxGeometry>
        </mxCell>
        <mxCell id="y3Y6H-X3qQzjZ2dYzm8i-57" value="" style="endArrow=none;html=1;rounded=0;fontFamily=Helvetica;fontSize=12;fontColor=default;entryX=0.562;entryY=1.079;entryDx=0;entryDy=0;exitX=0.546;exitY=0.023;exitDx=0;exitDy=0;exitPerimeter=0;entryPerimeter=0;" parent="1" source="y3Y6H-X3qQzjZ2dYzm8i-52" target="y3Y6H-X3qQzjZ2dYzm8i-55" edge="1">
          <mxGeometry width="50" height="50" relative="1" as="geometry">
            <mxPoint x="640" y="230" as="sourcePoint" />
            <mxPoint x="690" y="180" as="targetPoint" />
          </mxGeometry>
        </mxCell>
        <mxCell id="BF22gdORD3tfmSY-qZLE-10" value="N" style="edgeLabel;html=1;align=center;verticalAlign=middle;resizable=0;points=[];" vertex="1" connectable="0" parent="y3Y6H-X3qQzjZ2dYzm8i-57">
          <mxGeometry x="-0.375" relative="1" as="geometry">
            <mxPoint x="18" y="10" as="offset" />
          </mxGeometry>
        </mxCell>
        <mxCell id="y3Y6H-X3qQzjZ2dYzm8i-58" value="" style="endArrow=none;html=1;rounded=0;fontFamily=Helvetica;fontSize=12;fontColor=default;entryX=0.5;entryY=0;entryDx=0;entryDy=0;exitX=0.5;exitY=1;exitDx=0;exitDy=0;" parent="1" source="y3Y6H-X3qQzjZ2dYzm8i-69" target="y3Y6H-X3qQzjZ2dYzm8i-55" edge="1">
          <mxGeometry width="50" height="50" relative="1" as="geometry">
            <mxPoint x="880" y="90" as="sourcePoint" />
            <mxPoint x="690" y="180" as="targetPoint" />
          </mxGeometry>
        </mxCell>
        <mxCell id="y3Y6H-X3qQzjZ2dYzm8i-59" value="&lt;font style=&quot;font-size: 10px;&quot;&gt;DATA ABERTURA&lt;/font&gt;" style="ellipse;whiteSpace=wrap;html=1;" parent="1" vertex="1">
          <mxGeometry x="220" y="810" width="80" height="30" as="geometry" />
        </mxCell>
        <mxCell id="y3Y6H-X3qQzjZ2dYzm8i-60" value="SALDO" style="ellipse;whiteSpace=wrap;html=1;" parent="1" vertex="1">
          <mxGeometry x="345" y="810" width="80" height="30" as="geometry" />
        </mxCell>
        <mxCell id="y3Y6H-X3qQzjZ2dYzm8i-61" value="&lt;u&gt;NUM CONTA&lt;/u&gt;" style="ellipse;whiteSpace=wrap;html=1;" parent="1" vertex="1">
          <mxGeometry x="110" y="800" width="80" height="30" as="geometry" />
        </mxCell>
        <mxCell id="y3Y6H-X3qQzjZ2dYzm8i-62" value="&lt;font style=&quot;font-size: 9px;&quot;&gt;RESTRICAO SAQUE&lt;/font&gt;" style="ellipse;whiteSpace=wrap;html=1;" parent="1" vertex="1">
          <mxGeometry x="430" y="810" width="80" height="30" as="geometry" />
        </mxCell>
        <mxCell id="y3Y6H-X3qQzjZ2dYzm8i-63" value="" style="endArrow=none;html=1;rounded=0;fontFamily=Helvetica;fontSize=12;fontColor=default;exitX=0.5;exitY=0;exitDx=0;exitDy=0;entryX=0.5;entryY=1;entryDx=0;entryDy=0;" parent="1" source="y3Y6H-X3qQzjZ2dYzm8i-61" target="y3Y6H-X3qQzjZ2dYzm8i-31" edge="1">
          <mxGeometry width="50" height="50" relative="1" as="geometry">
            <mxPoint x="640" y="600" as="sourcePoint" />
            <mxPoint x="690" y="550" as="targetPoint" />
          </mxGeometry>
        </mxCell>
        <mxCell id="y3Y6H-X3qQzjZ2dYzm8i-64" value="" style="endArrow=none;html=1;rounded=0;fontFamily=Helvetica;fontSize=12;fontColor=default;exitX=0.5;exitY=0;exitDx=0;exitDy=0;entryX=0.5;entryY=1;entryDx=0;entryDy=0;" parent="1" source="y3Y6H-X3qQzjZ2dYzm8i-59" target="y3Y6H-X3qQzjZ2dYzm8i-31" edge="1">
          <mxGeometry width="50" height="50" relative="1" as="geometry">
            <mxPoint x="470" y="750" as="sourcePoint" />
            <mxPoint x="655" y="690" as="targetPoint" />
          </mxGeometry>
        </mxCell>
        <mxCell id="y3Y6H-X3qQzjZ2dYzm8i-65" value="" style="endArrow=none;html=1;rounded=0;fontFamily=Helvetica;fontSize=12;fontColor=default;exitX=0.5;exitY=0;exitDx=0;exitDy=0;entryX=0.5;entryY=1;entryDx=0;entryDy=0;" parent="1" source="y3Y6H-X3qQzjZ2dYzm8i-60" target="y3Y6H-X3qQzjZ2dYzm8i-31" edge="1">
          <mxGeometry width="50" height="50" relative="1" as="geometry">
            <mxPoint x="560" y="750" as="sourcePoint" />
            <mxPoint x="655" y="690" as="targetPoint" />
          </mxGeometry>
        </mxCell>
        <mxCell id="y3Y6H-X3qQzjZ2dYzm8i-66" value="" style="endArrow=none;html=1;rounded=0;fontFamily=Helvetica;fontSize=12;fontColor=default;exitX=0.5;exitY=0;exitDx=0;exitDy=0;entryX=0.5;entryY=1;entryDx=0;entryDy=0;" parent="1" source="y3Y6H-X3qQzjZ2dYzm8i-62" target="y3Y6H-X3qQzjZ2dYzm8i-31" edge="1">
          <mxGeometry width="50" height="50" relative="1" as="geometry">
            <mxPoint x="655" y="750" as="sourcePoint" />
            <mxPoint x="655" y="690" as="targetPoint" />
          </mxGeometry>
        </mxCell>
        <mxCell id="y3Y6H-X3qQzjZ2dYzm8i-67" value="&lt;font style=&quot;font-size: 10px;&quot;&gt;DATA ABERTURA&lt;/font&gt;" style="ellipse;whiteSpace=wrap;html=1;" parent="1" vertex="1">
          <mxGeometry x="880" y="50" width="80" height="30" as="geometry" />
        </mxCell>
        <mxCell id="y3Y6H-X3qQzjZ2dYzm8i-68" value="NUM_CARTAO" style="ellipse;whiteSpace=wrap;html=1;" parent="1" vertex="1">
          <mxGeometry x="960" y="60" width="90" height="30" as="geometry" />
        </mxCell>
        <mxCell id="y3Y6H-X3qQzjZ2dYzm8i-69" value="NUM CONTA" style="ellipse;whiteSpace=wrap;html=1;" parent="1" vertex="1">
          <mxGeometry x="800" y="40" width="80" height="30" as="geometry" />
        </mxCell>
        <mxCell id="y3Y6H-X3qQzjZ2dYzm8i-70" value="" style="endArrow=none;html=1;rounded=0;fontFamily=Helvetica;fontSize=12;fontColor=default;entryX=0.5;entryY=0;entryDx=0;entryDy=0;exitX=0.5;exitY=1;exitDx=0;exitDy=0;" parent="1" source="y3Y6H-X3qQzjZ2dYzm8i-67" target="y3Y6H-X3qQzjZ2dYzm8i-55" edge="1">
          <mxGeometry width="50" height="50" relative="1" as="geometry">
            <mxPoint x="855" y="80" as="sourcePoint" />
            <mxPoint x="855" y="130" as="targetPoint" />
          </mxGeometry>
        </mxCell>
        <mxCell id="y3Y6H-X3qQzjZ2dYzm8i-71" value="" style="endArrow=none;html=1;rounded=0;fontFamily=Helvetica;fontSize=12;fontColor=default;entryX=0.5;entryY=0;entryDx=0;entryDy=0;exitX=0.5;exitY=1;exitDx=0;exitDy=0;" parent="1" source="y3Y6H-X3qQzjZ2dYzm8i-68" target="y3Y6H-X3qQzjZ2dYzm8i-55" edge="1">
          <mxGeometry width="50" height="50" relative="1" as="geometry">
            <mxPoint x="960" y="60" as="sourcePoint" />
            <mxPoint x="855" y="130" as="targetPoint" />
          </mxGeometry>
        </mxCell>
        <mxCell id="y3Y6H-X3qQzjZ2dYzm8i-72" value="SALDO" style="ellipse;whiteSpace=wrap;html=1;" parent="1" vertex="1">
          <mxGeometry x="720" y="50" width="80" height="30" as="geometry" />
        </mxCell>
        <mxCell id="y3Y6H-X3qQzjZ2dYzm8i-73" value="" style="endArrow=none;html=1;rounded=0;fontFamily=Helvetica;fontSize=12;fontColor=default;exitX=0.5;exitY=1;exitDx=0;exitDy=0;entryX=0.5;entryY=0;entryDx=0;entryDy=0;" parent="1" source="y3Y6H-X3qQzjZ2dYzm8i-72" target="y3Y6H-X3qQzjZ2dYzm8i-55" edge="1">
          <mxGeometry width="50" height="50" relative="1" as="geometry">
            <mxPoint x="855" y="80" as="sourcePoint" />
            <mxPoint x="820" y="110" as="targetPoint" />
          </mxGeometry>
        </mxCell>
        <mxCell id="y3Y6H-X3qQzjZ2dYzm8i-74" value="&lt;font size=&quot;1&quot;&gt;TEM CONTA CORRENTE&lt;/font&gt;" style="shape=rhombus;double=1;perimeter=rhombusPerimeter;whiteSpace=wrap;html=1;align=center;rounded=0;strokeColor=default;verticalAlign=middle;fontFamily=Helvetica;fontSize=12;fontColor=default;fillColor=default;" parent="1" vertex="1">
          <mxGeometry x="500" y="95" width="150" height="90" as="geometry" />
        </mxCell>
        <mxCell id="y3Y6H-X3qQzjZ2dYzm8i-75" value="" style="endArrow=none;html=1;rounded=0;fontFamily=Helvetica;fontSize=12;fontColor=default;exitX=0.959;exitY=0.58;exitDx=0;exitDy=0;exitPerimeter=0;" parent="1" source="y3Y6H-X3qQzjZ2dYzm8i-74" edge="1">
          <mxGeometry width="50" height="50" relative="1" as="geometry">
            <mxPoint x="640" y="240" as="sourcePoint" />
            <mxPoint x="790" y="147" as="targetPoint" />
          </mxGeometry>
        </mxCell>
        <mxCell id="y3Y6H-X3qQzjZ2dYzm8i-77" value="" style="endArrow=none;html=1;rounded=0;fontFamily=Helvetica;fontSize=12;fontColor=default;exitX=0.949;exitY=0.432;exitDx=0;exitDy=0;exitPerimeter=0;entryX=-0.053;entryY=0.403;entryDx=0;entryDy=0;entryPerimeter=0;" parent="1" source="y3Y6H-X3qQzjZ2dYzm8i-74" target="y3Y6H-X3qQzjZ2dYzm8i-55" edge="1">
          <mxGeometry width="50" height="50" relative="1" as="geometry">
            <mxPoint x="654" y="157" as="sourcePoint" />
            <mxPoint x="800" y="157" as="targetPoint" />
          </mxGeometry>
        </mxCell>
        <mxCell id="BF22gdORD3tfmSY-qZLE-18" value="1" style="edgeLabel;html=1;align=center;verticalAlign=middle;resizable=0;points=[];" vertex="1" connectable="0" parent="y3Y6H-X3qQzjZ2dYzm8i-77">
          <mxGeometry x="-0.8135" y="1" relative="1" as="geometry">
            <mxPoint x="-6" y="-8" as="offset" />
          </mxGeometry>
        </mxCell>
        <mxCell id="y3Y6H-X3qQzjZ2dYzm8i-78" value="" style="endArrow=none;html=1;rounded=0;fontFamily=Helvetica;fontSize=12;fontColor=default;exitX=1;exitY=0.5;exitDx=0;exitDy=0;entryX=0;entryY=0.5;entryDx=0;entryDy=0;" parent="1" source="y3Y6H-X3qQzjZ2dYzm8i-1" target="y3Y6H-X3qQzjZ2dYzm8i-74" edge="1">
          <mxGeometry width="50" height="50" relative="1" as="geometry">
            <mxPoint x="500" y="320" as="sourcePoint" />
            <mxPoint x="490" y="140" as="targetPoint" />
            <Array as="points">
              <mxPoint x="430" y="320" />
              <mxPoint x="430" y="140" />
            </Array>
          </mxGeometry>
        </mxCell>
        <mxCell id="BF22gdORD3tfmSY-qZLE-19" value="1" style="edgeLabel;html=1;align=center;verticalAlign=middle;resizable=0;points=[];" vertex="1" connectable="0" parent="y3Y6H-X3qQzjZ2dYzm8i-78">
          <mxGeometry x="0.8057" y="-1" relative="1" as="geometry">
            <mxPoint x="38" y="-11" as="offset" />
          </mxGeometry>
        </mxCell>
        <mxCell id="y3Y6H-X3qQzjZ2dYzm8i-79" value="TRANSFERE" style="shape=rhombus;perimeter=rhombusPerimeter;whiteSpace=wrap;html=1;align=center;rounded=0;strokeColor=default;verticalAlign=middle;fontFamily=Helvetica;fontSize=12;fontColor=default;fillColor=default;" parent="1" vertex="1">
          <mxGeometry x="510" y="500" width="130" height="60" as="geometry" />
        </mxCell>
        <mxCell id="y3Y6H-X3qQzjZ2dYzm8i-80" value="TRANSFERE" style="shape=rhombus;perimeter=rhombusPerimeter;whiteSpace=wrap;html=1;align=center;rounded=0;strokeColor=default;verticalAlign=middle;fontFamily=Helvetica;fontSize=12;fontColor=default;fillColor=default;" parent="1" vertex="1">
          <mxGeometry x="510" y="215" width="130" height="60" as="geometry" />
        </mxCell>
        <mxCell id="y3Y6H-X3qQzjZ2dYzm8i-81" value="" style="endArrow=none;html=1;rounded=0;fontFamily=Helvetica;fontSize=12;fontColor=default;exitX=0.5;exitY=0;exitDx=0;exitDy=0;" parent="1" source="y3Y6H-X3qQzjZ2dYzm8i-27" edge="1">
          <mxGeometry width="50" height="50" relative="1" as="geometry">
            <mxPoint x="380" y="450" as="sourcePoint" />
            <mxPoint x="275" y="340" as="targetPoint" />
          </mxGeometry>
        </mxCell>
        <mxCell id="BF22gdORD3tfmSY-qZLE-1" value="1" style="edgeLabel;html=1;align=center;verticalAlign=middle;resizable=0;points=[];" vertex="1" connectable="0" parent="y3Y6H-X3qQzjZ2dYzm8i-81">
          <mxGeometry x="-0.7751" y="-1" relative="1" as="geometry">
            <mxPoint x="14" y="12" as="offset" />
          </mxGeometry>
        </mxCell>
        <mxCell id="y3Y6H-X3qQzjZ2dYzm8i-83" value="" style="endArrow=none;html=1;rounded=0;fontFamily=Helvetica;fontSize=12;fontColor=default;entryX=0.5;entryY=1;entryDx=0;entryDy=0;exitX=1;exitY=0;exitDx=0;exitDy=0;" parent="1" source="y3Y6H-X3qQzjZ2dYzm8i-31" target="y3Y6H-X3qQzjZ2dYzm8i-79" edge="1">
          <mxGeometry width="50" height="50" relative="1" as="geometry">
            <mxPoint x="565" y="600" as="sourcePoint" />
            <mxPoint x="330" y="400" as="targetPoint" />
            <Array as="points">
              <mxPoint x="575" y="680" />
            </Array>
          </mxGeometry>
        </mxCell>
        <mxCell id="BF22gdORD3tfmSY-qZLE-6" value="M" style="edgeLabel;html=1;align=center;verticalAlign=middle;resizable=0;points=[];" vertex="1" connectable="0" parent="y3Y6H-X3qQzjZ2dYzm8i-83">
          <mxGeometry x="0.9592" relative="1" as="geometry">
            <mxPoint x="15" y="-3" as="offset" />
          </mxGeometry>
        </mxCell>
        <mxCell id="y3Y6H-X3qQzjZ2dYzm8i-84" value="TRANSACOES" style="rounded=1;whiteSpace=wrap;html=1;arcSize=27;" parent="1" vertex="1">
          <mxGeometry x="520" y="360" width="120" height="40" as="geometry" />
        </mxCell>
        <mxCell id="y3Y6H-X3qQzjZ2dYzm8i-85" value="VALOR" style="ellipse;whiteSpace=wrap;html=1;" parent="1" vertex="1">
          <mxGeometry x="380" y="360" width="80" height="30" as="geometry" />
        </mxCell>
        <mxCell id="y3Y6H-X3qQzjZ2dYzm8i-86" value="TIPO" style="ellipse;whiteSpace=wrap;html=1;" parent="1" vertex="1">
          <mxGeometry x="380" y="395" width="80" height="30" as="geometry" />
        </mxCell>
        <mxCell id="y3Y6H-X3qQzjZ2dYzm8i-87" value="&lt;u&gt;ID&lt;/u&gt;" style="ellipse;whiteSpace=wrap;html=1;" parent="1" vertex="1">
          <mxGeometry x="414" y="430" width="80" height="30" as="geometry" />
        </mxCell>
        <mxCell id="y3Y6H-X3qQzjZ2dYzm8i-88" value="" style="endArrow=none;html=1;rounded=0;fontFamily=Helvetica;fontSize=12;fontColor=default;entryX=0;entryY=0.5;entryDx=0;entryDy=0;" parent="1" source="y3Y6H-X3qQzjZ2dYzm8i-85" target="y3Y6H-X3qQzjZ2dYzm8i-84" edge="1">
          <mxGeometry width="50" height="50" relative="1" as="geometry">
            <mxPoint x="280" y="450" as="sourcePoint" />
            <mxPoint x="330" y="400" as="targetPoint" />
          </mxGeometry>
        </mxCell>
        <mxCell id="y3Y6H-X3qQzjZ2dYzm8i-89" value="" style="endArrow=none;html=1;rounded=0;fontFamily=Helvetica;fontSize=12;fontColor=default;exitX=1;exitY=0.5;exitDx=0;exitDy=0;entryX=0;entryY=0.5;entryDx=0;entryDy=0;" parent="1" source="y3Y6H-X3qQzjZ2dYzm8i-86" target="y3Y6H-X3qQzjZ2dYzm8i-84" edge="1">
          <mxGeometry width="50" height="50" relative="1" as="geometry">
            <mxPoint x="470" y="387" as="sourcePoint" />
            <mxPoint x="500" y="400" as="targetPoint" />
          </mxGeometry>
        </mxCell>
        <mxCell id="y3Y6H-X3qQzjZ2dYzm8i-90" value="" style="endArrow=none;html=1;rounded=0;fontFamily=Helvetica;fontSize=12;fontColor=default;exitX=0.5;exitY=0;exitDx=0;exitDy=0;entryX=0;entryY=0.5;entryDx=0;entryDy=0;" parent="1" source="y3Y6H-X3qQzjZ2dYzm8i-87" target="y3Y6H-X3qQzjZ2dYzm8i-84" edge="1">
          <mxGeometry width="50" height="50" relative="1" as="geometry">
            <mxPoint x="470" y="435" as="sourcePoint" />
            <mxPoint x="530" y="390" as="targetPoint" />
          </mxGeometry>
        </mxCell>
        <mxCell id="y3Y6H-X3qQzjZ2dYzm8i-91" value="" style="endArrow=none;html=1;rounded=0;fontFamily=Helvetica;fontSize=12;fontColor=default;exitX=0.5;exitY=0;exitDx=0;exitDy=0;entryX=0.447;entryY=1.094;entryDx=0;entryDy=0;entryPerimeter=0;" parent="1" source="y3Y6H-X3qQzjZ2dYzm8i-79" target="y3Y6H-X3qQzjZ2dYzm8i-84" edge="1">
          <mxGeometry width="50" height="50" relative="1" as="geometry">
            <mxPoint x="570" y="460" as="sourcePoint" />
            <mxPoint x="620" y="410" as="targetPoint" />
          </mxGeometry>
        </mxCell>
        <mxCell id="BF22gdORD3tfmSY-qZLE-5" value="N" style="edgeLabel;html=1;align=center;verticalAlign=middle;resizable=0;points=[];" vertex="1" connectable="0" parent="y3Y6H-X3qQzjZ2dYzm8i-91">
          <mxGeometry x="-0.7076" y="-2" relative="1" as="geometry">
            <mxPoint x="13" y="9" as="offset" />
          </mxGeometry>
        </mxCell>
        <mxCell id="y3Y6H-X3qQzjZ2dYzm8i-92" value="" style="endArrow=none;html=1;rounded=0;fontFamily=Helvetica;fontSize=12;fontColor=default;entryX=0.5;entryY=1;entryDx=0;entryDy=0;exitX=0.472;exitY=0.032;exitDx=0;exitDy=0;exitPerimeter=0;" parent="1" source="y3Y6H-X3qQzjZ2dYzm8i-84" target="y3Y6H-X3qQzjZ2dYzm8i-80" edge="1">
          <mxGeometry width="50" height="50" relative="1" as="geometry">
            <mxPoint x="570" y="460" as="sourcePoint" />
            <mxPoint x="620" y="410" as="targetPoint" />
          </mxGeometry>
        </mxCell>
        <mxCell id="BF22gdORD3tfmSY-qZLE-17" value="N" style="edgeLabel;html=1;align=center;verticalAlign=middle;resizable=0;points=[];" vertex="1" connectable="0" parent="y3Y6H-X3qQzjZ2dYzm8i-92">
          <mxGeometry x="0.7297" y="1" relative="1" as="geometry">
            <mxPoint x="16" y="-6" as="offset" />
          </mxGeometry>
        </mxCell>
        <mxCell id="y3Y6H-X3qQzjZ2dYzm8i-93" value="" style="endArrow=none;html=1;rounded=0;fontFamily=Helvetica;fontSize=12;fontColor=default;entryX=0;entryY=1;entryDx=0;entryDy=0;exitX=0.915;exitY=0.38;exitDx=0;exitDy=0;exitPerimeter=0;" parent="1" source="y3Y6H-X3qQzjZ2dYzm8i-80" target="y3Y6H-X3qQzjZ2dYzm8i-55" edge="1">
          <mxGeometry width="50" height="50" relative="1" as="geometry">
            <mxPoint x="587" y="371" as="sourcePoint" />
            <mxPoint x="585" y="285" as="targetPoint" />
          </mxGeometry>
        </mxCell>
        <mxCell id="BF22gdORD3tfmSY-qZLE-16" value="M" style="edgeLabel;html=1;align=center;verticalAlign=middle;resizable=0;points=[];" vertex="1" connectable="0" parent="y3Y6H-X3qQzjZ2dYzm8i-93">
          <mxGeometry x="-0.7975" y="-1" relative="1" as="geometry">
            <mxPoint x="-17" y="-1" as="offset" />
          </mxGeometry>
        </mxCell>
        <mxCell id="y3Y6H-X3qQzjZ2dYzm8i-94" value="" style="endArrow=none;html=1;rounded=0;fontFamily=Helvetica;fontSize=12;fontColor=default;entryX=1;entryY=0.75;entryDx=0;entryDy=0;exitX=0;exitY=0.5;exitDx=0;exitDy=0;" parent="1" source="y3Y6H-X3qQzjZ2dYzm8i-95" target="y3Y6H-X3qQzjZ2dYzm8i-55" edge="1">
          <mxGeometry width="50" height="50" relative="1" as="geometry">
            <mxPoint x="1140" y="150" as="sourcePoint" />
            <mxPoint x="1010" y="350" as="targetPoint" />
          </mxGeometry>
        </mxCell>
        <mxCell id="BF22gdORD3tfmSY-qZLE-11" value="1" style="edgeLabel;html=1;align=center;verticalAlign=middle;resizable=0;points=[];" vertex="1" connectable="0" parent="y3Y6H-X3qQzjZ2dYzm8i-94">
          <mxGeometry x="-0.7692" y="2" relative="1" as="geometry">
            <mxPoint x="8" y="-12" as="offset" />
          </mxGeometry>
        </mxCell>
        <mxCell id="y3Y6H-X3qQzjZ2dYzm8i-95" value="DONO_DE" style="shape=rhombus;perimeter=rhombusPerimeter;whiteSpace=wrap;html=1;align=center;rounded=0;strokeColor=default;verticalAlign=middle;fontFamily=Helvetica;fontSize=12;fontColor=default;fillColor=default;" parent="1" vertex="1">
          <mxGeometry x="1050" y="120" width="130" height="60" as="geometry" />
        </mxCell>
        <mxCell id="y3Y6H-X3qQzjZ2dYzm8i-96" value="&lt;font style=&quot;font-size: 10px;&quot;&gt;CARTAO_DE_CREDITO&lt;/font&gt;" style="rounded=1;whiteSpace=wrap;html=1;arcSize=27;" parent="1" vertex="1">
          <mxGeometry x="1280" y="130" width="120" height="40" as="geometry" />
        </mxCell>
        <mxCell id="y3Y6H-X3qQzjZ2dYzm8i-97" value="" style="endArrow=none;html=1;rounded=0;fontFamily=Helvetica;fontSize=12;fontColor=default;exitX=0;exitY=0.5;exitDx=0;exitDy=0;entryX=1;entryY=0.5;entryDx=0;entryDy=0;" parent="1" source="y3Y6H-X3qQzjZ2dYzm8i-96" target="y3Y6H-X3qQzjZ2dYzm8i-95" edge="1">
          <mxGeometry width="50" height="50" relative="1" as="geometry">
            <mxPoint x="1060" y="160" as="sourcePoint" />
            <mxPoint x="1200" y="150" as="targetPoint" />
          </mxGeometry>
        </mxCell>
        <mxCell id="BF22gdORD3tfmSY-qZLE-13" value="N" style="edgeLabel;html=1;align=center;verticalAlign=middle;resizable=0;points=[];" vertex="1" connectable="0" parent="y3Y6H-X3qQzjZ2dYzm8i-97">
          <mxGeometry x="0.8604" relative="1" as="geometry">
            <mxPoint x="-7" y="-10" as="offset" />
          </mxGeometry>
        </mxCell>
        <mxCell id="y3Y6H-X3qQzjZ2dYzm8i-98" value="FATURA" style="ellipse;whiteSpace=wrap;html=1;" parent="1" vertex="1">
          <mxGeometry x="1331" y="60" width="90" height="30" as="geometry" />
        </mxCell>
        <mxCell id="y3Y6H-X3qQzjZ2dYzm8i-99" value="&lt;u&gt;NUM_CARTAO&lt;/u&gt;" style="ellipse;whiteSpace=wrap;html=1;" parent="1" vertex="1">
          <mxGeometry x="1241" y="80" width="90" height="30" as="geometry" />
        </mxCell>
        <mxCell id="y3Y6H-X3qQzjZ2dYzm8i-100" value="&lt;font style=&quot;font-size: 9px;&quot;&gt;COD_SEGURANCA&lt;/font&gt;" style="ellipse;whiteSpace=wrap;html=1;" parent="1" vertex="1">
          <mxGeometry x="1400" y="90" width="90" height="30" as="geometry" />
        </mxCell>
        <mxCell id="y3Y6H-X3qQzjZ2dYzm8i-101" value="" style="endArrow=none;html=1;rounded=0;fontFamily=Helvetica;fontSize=12;fontColor=default;entryX=0.5;entryY=1;entryDx=0;entryDy=0;exitX=0.5;exitY=0;exitDx=0;exitDy=0;" parent="1" source="y3Y6H-X3qQzjZ2dYzm8i-96" target="y3Y6H-X3qQzjZ2dYzm8i-99" edge="1">
          <mxGeometry width="50" height="50" relative="1" as="geometry">
            <mxPoint x="1170" y="210" as="sourcePoint" />
            <mxPoint x="1220" y="160" as="targetPoint" />
          </mxGeometry>
        </mxCell>
        <mxCell id="y3Y6H-X3qQzjZ2dYzm8i-102" value="" style="endArrow=none;html=1;rounded=0;fontFamily=Helvetica;fontSize=12;fontColor=default;entryX=0.5;entryY=1;entryDx=0;entryDy=0;exitX=0.5;exitY=0;exitDx=0;exitDy=0;" parent="1" source="y3Y6H-X3qQzjZ2dYzm8i-96" target="y3Y6H-X3qQzjZ2dYzm8i-98" edge="1">
          <mxGeometry width="50" height="50" relative="1" as="geometry">
            <mxPoint x="1350" y="140" as="sourcePoint" />
            <mxPoint x="1325" y="105" as="targetPoint" />
          </mxGeometry>
        </mxCell>
        <mxCell id="y3Y6H-X3qQzjZ2dYzm8i-104" value="" style="endArrow=none;html=1;rounded=0;fontFamily=Helvetica;fontSize=12;fontColor=default;entryX=0.5;entryY=1;entryDx=0;entryDy=0;exitX=0.5;exitY=0;exitDx=0;exitDy=0;" parent="1" source="y3Y6H-X3qQzjZ2dYzm8i-96" target="y3Y6H-X3qQzjZ2dYzm8i-100" edge="1">
          <mxGeometry width="50" height="50" relative="1" as="geometry">
            <mxPoint x="1350" y="140" as="sourcePoint" />
            <mxPoint x="1435" y="105" as="targetPoint" />
          </mxGeometry>
        </mxCell>
        <mxCell id="y3Y6H-X3qQzjZ2dYzm8i-105" value="DONO_DE" style="shape=rhombus;perimeter=rhombusPerimeter;whiteSpace=wrap;html=1;align=center;rounded=0;strokeColor=default;verticalAlign=middle;fontFamily=Helvetica;fontSize=12;fontColor=default;fillColor=default;" parent="1" vertex="1">
          <mxGeometry y="630" width="130" height="60" as="geometry" />
        </mxCell>
        <mxCell id="y3Y6H-X3qQzjZ2dYzm8i-106" value="" style="endArrow=none;html=1;rounded=0;fontFamily=Helvetica;fontSize=12;fontColor=default;entryX=0;entryY=0.5;entryDx=0;entryDy=0;exitX=1;exitY=0.5;exitDx=0;exitDy=0;" parent="1" source="y3Y6H-X3qQzjZ2dYzm8i-105" target="y3Y6H-X3qQzjZ2dYzm8i-31" edge="1">
          <mxGeometry width="50" height="50" relative="1" as="geometry">
            <mxPoint x="210" y="590" as="sourcePoint" />
            <mxPoint x="260" y="540" as="targetPoint" />
          </mxGeometry>
        </mxCell>
        <mxCell id="BF22gdORD3tfmSY-qZLE-27" value="1" style="edgeLabel;html=1;align=center;verticalAlign=middle;resizable=0;points=[];" vertex="1" connectable="0" parent="y3Y6H-X3qQzjZ2dYzm8i-106">
          <mxGeometry x="-0.637" relative="1" as="geometry">
            <mxPoint x="-18" y="-17" as="offset" />
          </mxGeometry>
        </mxCell>
        <mxCell id="y3Y6H-X3qQzjZ2dYzm8i-107" value="&lt;font style=&quot;font-size: 10px;&quot;&gt;CARTAO_DE_DEBITO&lt;/font&gt;" style="rounded=1;whiteSpace=wrap;html=1;arcSize=27;" parent="1" vertex="1">
          <mxGeometry x="-180" y="640" width="120" height="40" as="geometry" />
        </mxCell>
        <mxCell id="y3Y6H-X3qQzjZ2dYzm8i-108" value="" style="endArrow=none;html=1;rounded=0;fontFamily=Helvetica;fontSize=12;fontColor=default;exitX=0;exitY=0.5;exitDx=0;exitDy=0;entryX=1;entryY=0.5;entryDx=0;entryDy=0;" parent="1" source="y3Y6H-X3qQzjZ2dYzm8i-105" target="y3Y6H-X3qQzjZ2dYzm8i-107" edge="1">
          <mxGeometry width="50" height="50" relative="1" as="geometry">
            <mxPoint y="600" as="sourcePoint" />
            <mxPoint x="50" y="550" as="targetPoint" />
          </mxGeometry>
        </mxCell>
        <mxCell id="BF22gdORD3tfmSY-qZLE-28" value="N" style="edgeLabel;html=1;align=center;verticalAlign=middle;resizable=0;points=[];" vertex="1" connectable="0" parent="y3Y6H-X3qQzjZ2dYzm8i-108">
          <mxGeometry x="-0.3705" y="-3" relative="1" as="geometry">
            <mxPoint x="19" y="-12" as="offset" />
          </mxGeometry>
        </mxCell>
        <mxCell id="y3Y6H-X3qQzjZ2dYzm8i-111" value="" style="endArrow=none;html=1;rounded=0;fontFamily=Helvetica;fontSize=12;fontColor=default;entryX=0.25;entryY=1;entryDx=0;entryDy=0;exitX=1;exitY=0.5;exitDx=0;exitDy=0;" parent="1" source="y3Y6H-X3qQzjZ2dYzm8i-115" target="y3Y6H-X3qQzjZ2dYzm8i-1" edge="1">
          <mxGeometry width="50" height="50" relative="1" as="geometry">
            <mxPoint x="-320" y="440" as="sourcePoint" />
            <mxPoint x="330" y="440" as="targetPoint" />
            <Array as="points">
              <mxPoint x="200" y="440" />
            </Array>
          </mxGeometry>
        </mxCell>
        <mxCell id="BF22gdORD3tfmSY-qZLE-20" value="1" style="edgeLabel;html=1;align=center;verticalAlign=middle;resizable=0;points=[];" vertex="1" connectable="0" parent="y3Y6H-X3qQzjZ2dYzm8i-111">
          <mxGeometry x="-0.9307" relative="1" as="geometry">
            <mxPoint x="-21" y="-15" as="offset" />
          </mxGeometry>
        </mxCell>
        <mxCell id="y3Y6H-X3qQzjZ2dYzm8i-112" value="" style="endArrow=none;html=1;rounded=0;fontFamily=Helvetica;fontSize=12;fontColor=default;entryX=0.081;entryY=1.026;entryDx=0;entryDy=0;entryPerimeter=0;exitX=0.5;exitY=1;exitDx=0;exitDy=0;" parent="1" source="y3Y6H-X3qQzjZ2dYzm8i-114" target="y3Y6H-X3qQzjZ2dYzm8i-1" edge="1">
          <mxGeometry width="50" height="50" relative="1" as="geometry">
            <mxPoint x="-170" y="400" as="sourcePoint" />
            <mxPoint x="330" y="440" as="targetPoint" />
            <Array as="points">
              <mxPoint x="-255" y="400" />
              <mxPoint x="180" y="400" />
            </Array>
          </mxGeometry>
        </mxCell>
        <mxCell id="BF22gdORD3tfmSY-qZLE-22" value="1" style="edgeLabel;html=1;align=center;verticalAlign=middle;resizable=0;points=[];" vertex="1" connectable="0" parent="y3Y6H-X3qQzjZ2dYzm8i-112">
          <mxGeometry x="-0.9516" y="3" relative="1" as="geometry">
            <mxPoint x="12" y="-8" as="offset" />
          </mxGeometry>
        </mxCell>
        <mxCell id="y3Y6H-X3qQzjZ2dYzm8i-113" value="" style="endArrow=none;html=1;rounded=0;fontFamily=Helvetica;fontSize=12;fontColor=default;exitX=1;exitY=0.5;exitDx=0;exitDy=0;" parent="1" source="y3Y6H-X3qQzjZ2dYzm8i-117" edge="1">
          <mxGeometry width="50" height="50" relative="1" as="geometry">
            <mxPoint x="-150" y="500" as="sourcePoint" />
            <mxPoint x="240" y="340" as="targetPoint" />
            <Array as="points">
              <mxPoint x="-160" y="575" />
              <mxPoint x="-160" y="500" />
              <mxPoint x="240" y="500" />
            </Array>
          </mxGeometry>
        </mxCell>
        <mxCell id="BF22gdORD3tfmSY-qZLE-25" value="1" style="edgeLabel;html=1;align=center;verticalAlign=middle;resizable=0;points=[];" vertex="1" connectable="0" parent="y3Y6H-X3qQzjZ2dYzm8i-113">
          <mxGeometry x="-0.958" y="2" relative="1" as="geometry">
            <mxPoint x="-15" y="-13" as="offset" />
          </mxGeometry>
        </mxCell>
        <mxCell id="y3Y6H-X3qQzjZ2dYzm8i-114" value="&lt;font style=&quot;font-size: 9px;&quot;&gt;POSSUI_INVESTIMENTOS&lt;/font&gt;" style="shape=rhombus;double=1;perimeter=rhombusPerimeter;whiteSpace=wrap;html=1;align=center;rounded=0;strokeColor=default;verticalAlign=middle;fontFamily=Helvetica;fontSize=12;fontColor=default;fillColor=default;" parent="1" vertex="1">
          <mxGeometry x="-330" y="280" width="150" height="90" as="geometry" />
        </mxCell>
        <mxCell id="y3Y6H-X3qQzjZ2dYzm8i-115" value="&lt;font style=&quot;font-size: 9px;&quot;&gt;POSSUI_SEGUROS&lt;/font&gt;" style="shape=rhombus;double=1;perimeter=rhombusPerimeter;whiteSpace=wrap;html=1;align=center;rounded=0;strokeColor=default;verticalAlign=middle;fontFamily=Helvetica;fontSize=12;fontColor=default;fillColor=default;" parent="1" vertex="1">
          <mxGeometry x="-450" y="395" width="150" height="90" as="geometry" />
        </mxCell>
        <mxCell id="y3Y6H-X3qQzjZ2dYzm8i-117" value="&lt;font style=&quot;font-size: 9px;&quot;&gt;POSSUI_EMPRESTIMOS&lt;/font&gt;" style="shape=rhombus;double=1;perimeter=rhombusPerimeter;whiteSpace=wrap;html=1;align=center;rounded=0;strokeColor=default;verticalAlign=middle;fontFamily=Helvetica;fontSize=12;fontColor=default;fillColor=default;" parent="1" vertex="1">
          <mxGeometry x="-420" y="530" width="150" height="90" as="geometry" />
        </mxCell>
        <mxCell id="y3Y6H-X3qQzjZ2dYzm8i-118" value="INVESTIMENTOS" style="shape=ext;margin=3;double=1;whiteSpace=wrap;html=1;align=center;rounded=0;strokeColor=default;verticalAlign=middle;fontFamily=Helvetica;fontSize=12;fontColor=default;fillColor=default;" parent="1" vertex="1">
          <mxGeometry x="-312.5" y="180" width="115" height="40" as="geometry" />
        </mxCell>
        <mxCell id="y3Y6H-X3qQzjZ2dYzm8i-119" value="SEGUROS" style="shape=ext;margin=3;double=1;whiteSpace=wrap;html=1;align=center;rounded=0;strokeColor=default;verticalAlign=middle;fontFamily=Helvetica;fontSize=12;fontColor=default;fillColor=default;" parent="1" vertex="1">
          <mxGeometry x="-730" y="420" width="100" height="40" as="geometry" />
        </mxCell>
        <mxCell id="y3Y6H-X3qQzjZ2dYzm8i-120" value="EMPRESTIMOS" style="shape=ext;margin=3;double=1;whiteSpace=wrap;html=1;align=center;rounded=0;strokeColor=default;verticalAlign=middle;fontFamily=Helvetica;fontSize=12;fontColor=default;fillColor=default;" parent="1" vertex="1">
          <mxGeometry x="-630" y="560" width="100" height="40" as="geometry" />
        </mxCell>
        <mxCell id="y3Y6H-X3qQzjZ2dYzm8i-121" value="" style="endArrow=none;html=1;rounded=0;fontFamily=Helvetica;fontSize=12;fontColor=default;exitX=1;exitY=0.75;exitDx=0;exitDy=0;entryX=0.106;entryY=0.621;entryDx=0;entryDy=0;entryPerimeter=0;" parent="1" source="y3Y6H-X3qQzjZ2dYzm8i-119" target="y3Y6H-X3qQzjZ2dYzm8i-115" edge="1">
          <mxGeometry width="50" height="50" relative="1" as="geometry">
            <mxPoint x="-320" y="460" as="sourcePoint" />
            <mxPoint x="-270" y="410" as="targetPoint" />
          </mxGeometry>
        </mxCell>
        <mxCell id="y3Y6H-X3qQzjZ2dYzm8i-122" value="" style="endArrow=none;html=1;rounded=0;fontFamily=Helvetica;fontSize=12;fontColor=default;exitX=1.008;exitY=0.377;exitDx=0;exitDy=0;entryX=0.064;entryY=0.461;entryDx=0;entryDy=0;entryPerimeter=0;exitPerimeter=0;" parent="1" source="y3Y6H-X3qQzjZ2dYzm8i-119" target="y3Y6H-X3qQzjZ2dYzm8i-115" edge="1">
          <mxGeometry width="50" height="50" relative="1" as="geometry">
            <mxPoint x="-620" y="460" as="sourcePoint" />
            <mxPoint x="-424" y="461" as="targetPoint" />
          </mxGeometry>
        </mxCell>
        <mxCell id="BF22gdORD3tfmSY-qZLE-21" value="N" style="edgeLabel;html=1;align=center;verticalAlign=middle;resizable=0;points=[];" vertex="1" connectable="0" parent="y3Y6H-X3qQzjZ2dYzm8i-122">
          <mxGeometry x="0.6522" y="2" relative="1" as="geometry">
            <mxPoint x="23" y="-9" as="offset" />
          </mxGeometry>
        </mxCell>
        <mxCell id="y3Y6H-X3qQzjZ2dYzm8i-123" value="SEGURO_TIPO" style="ellipse;whiteSpace=wrap;html=1;" parent="1" vertex="1">
          <mxGeometry x="-670" y="360" width="100" height="30" as="geometry" />
        </mxCell>
        <mxCell id="y3Y6H-X3qQzjZ2dYzm8i-124" value="&lt;u&gt;SEGURO_NUM&lt;/u&gt;" style="ellipse;whiteSpace=wrap;html=1;" parent="1" vertex="1">
          <mxGeometry x="-800" y="360" width="100" height="30" as="geometry" />
        </mxCell>
        <mxCell id="y3Y6H-X3qQzjZ2dYzm8i-125" value="" style="endArrow=none;html=1;rounded=0;fontFamily=Helvetica;fontSize=12;fontColor=default;entryX=0.5;entryY=0;entryDx=0;entryDy=0;exitX=0.5;exitY=1;exitDx=0;exitDy=0;" parent="1" source="y3Y6H-X3qQzjZ2dYzm8i-124" target="y3Y6H-X3qQzjZ2dYzm8i-119" edge="1">
          <mxGeometry width="50" height="50" relative="1" as="geometry">
            <mxPoint x="-540" y="520" as="sourcePoint" />
            <mxPoint x="-490" y="470" as="targetPoint" />
          </mxGeometry>
        </mxCell>
        <mxCell id="y3Y6H-X3qQzjZ2dYzm8i-126" value="" style="endArrow=none;html=1;rounded=0;fontFamily=Helvetica;fontSize=12;fontColor=default;entryX=0.5;entryY=0;entryDx=0;entryDy=0;exitX=0.5;exitY=1;exitDx=0;exitDy=0;" parent="1" source="y3Y6H-X3qQzjZ2dYzm8i-123" target="y3Y6H-X3qQzjZ2dYzm8i-119" edge="1">
          <mxGeometry width="50" height="50" relative="1" as="geometry">
            <mxPoint x="-740" y="400" as="sourcePoint" />
            <mxPoint x="-670" y="430" as="targetPoint" />
          </mxGeometry>
        </mxCell>
        <mxCell id="y3Y6H-X3qQzjZ2dYzm8i-127" value="" style="endArrow=none;html=1;rounded=0;fontFamily=Helvetica;fontSize=12;fontColor=default;entryX=0.038;entryY=0.419;entryDx=0;entryDy=0;entryPerimeter=0;exitX=1;exitY=0.25;exitDx=0;exitDy=0;" parent="1" source="y3Y6H-X3qQzjZ2dYzm8i-120" target="y3Y6H-X3qQzjZ2dYzm8i-117" edge="1">
          <mxGeometry width="50" height="50" relative="1" as="geometry">
            <mxPoint x="-540" y="520" as="sourcePoint" />
            <mxPoint x="-490" y="470" as="targetPoint" />
          </mxGeometry>
        </mxCell>
        <mxCell id="BF22gdORD3tfmSY-qZLE-26" value="N" style="edgeLabel;html=1;align=center;verticalAlign=middle;resizable=0;points=[];" vertex="1" connectable="0" parent="y3Y6H-X3qQzjZ2dYzm8i-127">
          <mxGeometry x="0.2292" relative="1" as="geometry">
            <mxPoint x="39" y="-9" as="offset" />
          </mxGeometry>
        </mxCell>
        <mxCell id="y3Y6H-X3qQzjZ2dYzm8i-128" value="" style="endArrow=none;html=1;rounded=0;fontFamily=Helvetica;fontSize=12;fontColor=default;entryX=0;entryY=0.556;entryDx=0;entryDy=0;exitX=1;exitY=0.5;exitDx=0;exitDy=0;entryPerimeter=0;" parent="1" source="y3Y6H-X3qQzjZ2dYzm8i-120" target="y3Y6H-X3qQzjZ2dYzm8i-117" edge="1">
          <mxGeometry width="50" height="50" relative="1" as="geometry">
            <mxPoint x="-540" y="520" as="sourcePoint" />
            <mxPoint x="-490" y="470" as="targetPoint" />
          </mxGeometry>
        </mxCell>
        <mxCell id="y3Y6H-X3qQzjZ2dYzm8i-129" value="&lt;font style=&quot;font-size: 10px;&quot;&gt;&lt;u&gt;CONTRATO_COD&lt;/u&gt;&lt;/font&gt;" style="ellipse;whiteSpace=wrap;html=1;" parent="1" vertex="1">
          <mxGeometry x="-780" y="530" width="100" height="30" as="geometry" />
        </mxCell>
        <mxCell id="y3Y6H-X3qQzjZ2dYzm8i-130" value="" style="endArrow=none;html=1;rounded=0;fontFamily=Helvetica;fontSize=12;fontColor=default;entryX=0;entryY=0.5;entryDx=0;entryDy=0;exitX=1;exitY=0.5;exitDx=0;exitDy=0;" parent="1" source="y3Y6H-X3qQzjZ2dYzm8i-129" target="y3Y6H-X3qQzjZ2dYzm8i-120" edge="1">
          <mxGeometry width="50" height="50" relative="1" as="geometry">
            <mxPoint x="-740" y="400" as="sourcePoint" />
            <mxPoint x="-670" y="430" as="targetPoint" />
          </mxGeometry>
        </mxCell>
        <mxCell id="y3Y6H-X3qQzjZ2dYzm8i-135" value="&lt;span style=&quot;font-size: 10px;&quot;&gt;DATA_PAGAMENTO&lt;/span&gt;" style="ellipse;whiteSpace=wrap;html=1;" parent="1" vertex="1">
          <mxGeometry x="-810" y="645" width="110" height="30" as="geometry" />
        </mxCell>
        <mxCell id="y3Y6H-X3qQzjZ2dYzm8i-136" value="" style="endArrow=none;html=1;rounded=0;fontFamily=Helvetica;fontSize=12;fontColor=default;entryX=0;entryY=0.5;entryDx=0;entryDy=0;exitX=1;exitY=0.5;exitDx=0;exitDy=0;" parent="1" source="y3Y6H-X3qQzjZ2dYzm8i-135" target="y3Y6H-X3qQzjZ2dYzm8i-120" edge="1">
          <mxGeometry width="50" height="50" relative="1" as="geometry">
            <mxPoint x="-710" y="625" as="sourcePoint" />
            <mxPoint x="-620" y="590" as="targetPoint" />
          </mxGeometry>
        </mxCell>
        <mxCell id="y3Y6H-X3qQzjZ2dYzm8i-137" value="" style="endArrow=none;html=1;rounded=0;fontFamily=Helvetica;fontSize=12;fontColor=default;entryX=0.5;entryY=1;entryDx=0;entryDy=0;" parent="1" source="y3Y6H-X3qQzjZ2dYzm8i-114" target="y3Y6H-X3qQzjZ2dYzm8i-118" edge="1">
          <mxGeometry width="50" height="50" relative="1" as="geometry">
            <mxPoint x="-590" y="340" as="sourcePoint" />
            <mxPoint x="-540" y="290" as="targetPoint" />
          </mxGeometry>
        </mxCell>
        <mxCell id="BF22gdORD3tfmSY-qZLE-24" value="N" style="edgeLabel;html=1;align=center;verticalAlign=middle;resizable=0;points=[];" vertex="1" connectable="0" parent="y3Y6H-X3qQzjZ2dYzm8i-137">
          <mxGeometry x="-0.6829" relative="1" as="geometry">
            <mxPoint x="15" as="offset" />
          </mxGeometry>
        </mxCell>
        <mxCell id="y3Y6H-X3qQzjZ2dYzm8i-138" value="&lt;font style=&quot;font-size: 9px;&quot;&gt;&lt;u&gt;CONTRATO_NUMERO&lt;/u&gt;&lt;/font&gt;" style="ellipse;whiteSpace=wrap;html=1;" parent="1" vertex="1">
          <mxGeometry x="-425" y="125" width="100" height="30" as="geometry" />
        </mxCell>
        <mxCell id="y3Y6H-X3qQzjZ2dYzm8i-139" value="" style="endArrow=none;html=1;rounded=0;fontFamily=Helvetica;fontSize=12;fontColor=default;entryX=0.5;entryY=1;entryDx=0;entryDy=0;exitX=0.5;exitY=0;exitDx=0;exitDy=0;" parent="1" source="y3Y6H-X3qQzjZ2dYzm8i-118" target="y3Y6H-X3qQzjZ2dYzm8i-138" edge="1">
          <mxGeometry width="50" height="50" relative="1" as="geometry">
            <mxPoint x="-590" y="340" as="sourcePoint" />
            <mxPoint x="-540" y="290" as="targetPoint" />
          </mxGeometry>
        </mxCell>
        <mxCell id="y3Y6H-X3qQzjZ2dYzm8i-140" value="&lt;font style=&quot;font-size: 9px;&quot;&gt;TEMPO_MINIMO&lt;/font&gt;" style="ellipse;whiteSpace=wrap;html=1;" parent="1" vertex="1">
          <mxGeometry x="-320" y="120" width="100" height="30" as="geometry" />
        </mxCell>
        <mxCell id="y3Y6H-X3qQzjZ2dYzm8i-141" value="" style="endArrow=none;html=1;rounded=0;fontFamily=Helvetica;fontSize=12;fontColor=default;entryX=0.5;entryY=1;entryDx=0;entryDy=0;exitX=0.5;exitY=0;exitDx=0;exitDy=0;" parent="1" source="y3Y6H-X3qQzjZ2dYzm8i-118" target="y3Y6H-X3qQzjZ2dYzm8i-140" edge="1">
          <mxGeometry width="50" height="50" relative="1" as="geometry">
            <mxPoint x="-590" y="340" as="sourcePoint" />
            <mxPoint x="-540" y="290" as="targetPoint" />
          </mxGeometry>
        </mxCell>
        <mxCell id="y3Y6H-X3qQzjZ2dYzm8i-142" value="&lt;font size=&quot;1&quot;&gt;RETORNO&lt;/font&gt;" style="ellipse;whiteSpace=wrap;html=1;" parent="1" vertex="1">
          <mxGeometry x="-220" y="130" width="100" height="30" as="geometry" />
        </mxCell>
        <mxCell id="y3Y6H-X3qQzjZ2dYzm8i-143" value="" style="endArrow=none;html=1;rounded=0;fontFamily=Helvetica;fontSize=12;fontColor=default;entryX=0.5;entryY=1;entryDx=0;entryDy=0;" parent="1" target="y3Y6H-X3qQzjZ2dYzm8i-142" edge="1">
          <mxGeometry width="50" height="50" relative="1" as="geometry">
            <mxPoint x="-250" y="180" as="sourcePoint" />
            <mxPoint x="-260" y="160" as="targetPoint" />
          </mxGeometry>
        </mxCell>
        <mxCell id="BF22gdORD3tfmSY-qZLE-14" value="" style="endArrow=none;html=1;rounded=0;fontFamily=Helvetica;fontSize=12;fontColor=default;entryX=0.14;entryY=1.111;entryDx=0;entryDy=0;exitX=1;exitY=0.5;exitDx=0;exitDy=0;entryPerimeter=0;" edge="1" parent="1" source="y3Y6H-X3qQzjZ2dYzm8i-80" target="y3Y6H-X3qQzjZ2dYzm8i-55">
          <mxGeometry width="50" height="50" relative="1" as="geometry">
            <mxPoint x="650" y="255" as="sourcePoint" />
            <mxPoint x="805" y="170" as="targetPoint" />
          </mxGeometry>
        </mxCell>
        <mxCell id="BF22gdORD3tfmSY-qZLE-29" value="TELEFONE" style="ellipse;shape=doubleEllipse;margin=3;whiteSpace=wrap;html=1;align=center;" vertex="1" parent="1">
          <mxGeometry x="940" y="300" width="100" height="40" as="geometry" />
        </mxCell>
        <mxCell id="BF22gdORD3tfmSY-qZLE-30" value="TELEFONE" style="ellipse;shape=doubleEllipse;margin=3;whiteSpace=wrap;html=1;align=center;" vertex="1" parent="1">
          <mxGeometry x="225" y="210" width="100" height="40" as="geometry" />
        </mxCell>
      </root>
    </mxGraphModel>
  </diagram>
</mxfile>
